<svg id="Yu" data-name="Yu" xmlns="http://www.w3.org/2000/svg" viewBox="0 0 512 512"><defs><style>.cls-1{fill:#adbac7;stroke:#000;stroke-miterlimit:10;stroke-width:6px;}</style></defs><path class="cls-1" d="M105.43,137.79c1.55,2.41,3.48,5.66,5.77,9.72s4.81,8.68,7.56,13.84,5.66,10.77,8.73,16.81,6.16,12.23,9.27,18.57S143,209.44,146,215.85s5.87,12.57,8.53,18.51q3.57,8.13,6.11,14.61T165.22,262H166q6.47-12.2,13.2-24.61T192.57,213q6.6-12,12.92-23.24t12.09-21q5.78-9.83,10.72-17.9T237.1,137a24.94,24.94,0,0,1,5.09-5.82,19.82,19.82,0,0,1,5.56-3.19,23.45,23.45,0,0,1,6.26-1.37c2.2-.19,4.53-.28,7-.28a37.67,37.67,0,0,1,4.67.33q2.61.33,5.29.93a49,49,0,0,1,5.22,1.49c.68.23,1.34.49,2,.76a2.12,2.12,0,0,1,.71,3.4q-19,20.5-33.81,39-15.52,19.4-27,35.71T198.75,237.1q-7.83,12.85-12.64,21.43a123.21,123.21,0,0,0-5.64,11.15,72.92,72.92,0,0,0-3.91,11.59,123.49,123.49,0,0,0-2.62,14q-1,7.74-1.58,18.29c-.27,4.61-.53,9.36-.75,14.23s-.48,10-.76,15.32-.53,11-.75,17.09q-.32,8.27-.69,17.76a2.12,2.12,0,0,1-1.9,2l-30.33,3.07a3.93,3.93,0,0,1-.84,0h0a2.12,2.12,0,0,1-1.92-2.24q.89-13.54,1.59-26.67.75-14.12,1.24-25.92t.68-20.6q.21-8.79.21-12.86a83.67,83.67,0,0,0-1.31-14.39,94.08,94.08,0,0,0-4.33-15.82q-3.3-9.12-7.83-19.34t-9.55-20.6q-5-10.38-10.38-20.43T94.43,185.3q-5-8.84-9.21-16t-7.15-11.76a35.8,35.8,0,0,0-5.22-6.81,22.39,22.39,0,0,0-6.18-4.39A28.86,28.86,0,0,0,59,144a58,58,0,0,0-9.55-.71q-5,0-10.38.5-4.55.41-9.61.94a2.12,2.12,0,0,1-2.31-1.78l-.49-3.18a4.88,4.88,0,0,1,3.87-5.53q17.72-3.51,29.84-5.51a143.53,143.53,0,0,1,22.34-2.25q8.66,0,13.81,2.69A23.38,23.38,0,0,1,105.43,137.79Z"/><path class="cls-1" d="M314.62,242.27q0,7.47-.62,16t-1.51,17.31q-.9,8.79-1.92,17.52t-1.93,16.53c-.6,5.21-1.1,10-1.51,14.34s-.62,8-.62,10.93q0,13.08,6.19,19.12t16.49,6q11.69,0,23.92-10.05t23.36-29.39a227.94,227.94,0,0,0,19-43.45,225,225,0,0,0,10-51.33.82.82,0,0,1,.74-.76l28.39-2.78h.12l1.26.06a.82.82,0,0,1,.78.91q-1.18,10.06-2.17,21.27-1,11.7-1.85,23.4t-1.24,22.91Q431,302,431,311.48q0,17.91,2.61,29.28t6.73,17.91q4.13,6.54,9.42,9a25.09,25.09,0,0,0,10.65,2.47,30,30,0,0,0,6.26-.66,52.78,52.78,0,0,0,5.84-1.59,43.81,43.81,0,0,0,5-2c1.26-.61,2.38-1.16,3.35-1.67a.81.81,0,0,1,1,.18l3.52,3.92a.83.83,0,0,1-.09,1.2,66.31,66.31,0,0,1-8.39,5.66,76.37,76.37,0,0,1-10.73,5.05,72,72,0,0,1-11.82,3.35,64.67,64.67,0,0,1-12.5,1.21,48,48,0,0,1-15.47-2.53,33,33,0,0,1-13.26-8.46q-5.78-5.92-9.28-15.82t-3.5-24.61c0-3.14.09-6.33.27-9.55s.46-6.63.83-10.22.84-7.45,1.44-11.59c.56-3.91,1.23-8.18,2-12.84a.83.83,0,0,0-.69-1h0a.83.83,0,0,0-.9.55q-9.25,27.15-20.05,45.6Q372.35,353,360.87,364.44t-23,16.31a56.42,56.42,0,0,1-22,4.89,52.85,52.85,0,0,1-15.05-2.14A33.27,33.27,0,0,1,279,363.56q-3.36-8-3.36-19.78a166.61,166.61,0,0,1,1.1-17.85q1.1-10.15,2.4-21.65t2.41-23.73q1.1-12.24,1.1-24.22a71.57,71.57,0,0,0-.42-8.35,14.68,14.68,0,0,0-1.78-5.82,8.16,8.16,0,0,0-4.06-3.41,19.92,19.92,0,0,0-7.35-1.1,88.08,88.08,0,0,0-12.17,1.1q-7.12,1-14.95,2.79a.82.82,0,0,1-1-.59l-1.66-6.36a.83.83,0,0,1,.58-1q10.83-3,20.18-5.33,9.69-2.35,17.31-3.9c5.09-1,9.4-1.79,12.92-2.31a61,61,0,0,1,7.77-.77,19.84,19.84,0,0,1,8.11,1.43,12.18,12.18,0,0,1,5.08,4.18,17.08,17.08,0,0,1,2.69,6.59A46.18,46.18,0,0,1,314.62,242.27Z"/></svg>